<mxfile host="app.diagrams.net" modified="2023-01-21T03:51:34.066Z" agent="5.0 (Windows NT 10.0; Win64; x64) AppleWebKit/537.36 (KHTML, like Gecko) Chrome/107.0.0.0 Safari/537.36 Edg/107.0.1418.56" version="20.7.4" etag="M3xqjT0xYFsaWp0lJcJB" type="github">
  <diagram id="p6rY2BEMjZA1w9X_QQ-n" name="第 1 页">
    <mxGraphModel dx="1434" dy="756" grid="1" gridSize="10" guides="1" tooltips="1" connect="1" arrows="1" fold="1" page="1" pageScale="1" pageWidth="827" pageHeight="1169" math="0" shadow="0">
      <root>
        <mxCell id="0" />
        <mxCell id="1" parent="0" />
        <mxCell id="srteDfpbYkzMwz0qbXHS-1" value="结婚" style="ellipse;whiteSpace=wrap;html=1;aspect=fixed;" vertex="1" parent="1">
          <mxGeometry x="330" y="140" width="80" height="80" as="geometry" />
        </mxCell>
        <mxCell id="srteDfpbYkzMwz0qbXHS-3" value="" style="strokeWidth=2;html=1;shape=mxgraph.flowchart.annotation_2;align=left;labelPosition=right;pointerEvents=1;rotation=90;" vertex="1" parent="1">
          <mxGeometry x="347.5" y="192.5" width="45" height="100" as="geometry" />
        </mxCell>
        <mxCell id="srteDfpbYkzMwz0qbXHS-5" value="嫁女儿" style="shape=hexagon;perimeter=hexagonPerimeter2;whiteSpace=wrap;html=1;fixedSize=1;" vertex="1" parent="1">
          <mxGeometry x="280" y="260" width="60" height="40" as="geometry" />
        </mxCell>
        <mxCell id="srteDfpbYkzMwz0qbXHS-7" value="" style="strokeWidth=2;html=1;shape=mxgraph.flowchart.annotation_2;align=left;labelPosition=right;pointerEvents=1;rotation=90;" vertex="1" parent="1">
          <mxGeometry x="370" y="260" width="135" height="210" as="geometry" />
        </mxCell>
        <mxCell id="srteDfpbYkzMwz0qbXHS-6" value="娶儿媳" style="shape=hexagon;perimeter=hexagonPerimeter2;whiteSpace=wrap;html=1;fixedSize=1;" vertex="1" parent="1">
          <mxGeometry x="400" y="260" width="60" height="40" as="geometry" />
        </mxCell>
        <mxCell id="srteDfpbYkzMwz0qbXHS-9" value="女方父母" style="shape=process;whiteSpace=wrap;html=1;backgroundOutline=1;" vertex="1" parent="1">
          <mxGeometry x="300" y="430" width="70" height="40" as="geometry" />
        </mxCell>
        <mxCell id="srteDfpbYkzMwz0qbXHS-10" value="女方" style="shape=process;whiteSpace=wrap;html=1;backgroundOutline=1;" vertex="1" parent="1">
          <mxGeometry x="520" y="430" width="50" height="40" as="geometry" />
        </mxCell>
        <mxCell id="srteDfpbYkzMwz0qbXHS-12" value="" style="endArrow=classic;html=1;rounded=0;entryX=1;entryY=0.5;entryDx=0;entryDy=0;entryPerimeter=0;exitX=0.506;exitY=0.495;exitDx=0;exitDy=0;exitPerimeter=0;" edge="1" parent="1" source="srteDfpbYkzMwz0qbXHS-7" target="srteDfpbYkzMwz0qbXHS-7">
          <mxGeometry width="50" height="50" relative="1" as="geometry">
            <mxPoint x="460" y="360" as="sourcePoint" />
            <mxPoint x="440" y="360" as="targetPoint" />
          </mxGeometry>
        </mxCell>
        <mxCell id="srteDfpbYkzMwz0qbXHS-13" value="女方亲戚" style="shape=process;whiteSpace=wrap;html=1;backgroundOutline=1;" vertex="1" parent="1">
          <mxGeometry x="390" y="430" width="80" height="40" as="geometry" />
        </mxCell>
        <mxCell id="srteDfpbYkzMwz0qbXHS-14" value="" style="strokeWidth=2;html=1;shape=mxgraph.flowchart.annotation_2;align=left;labelPosition=right;pointerEvents=1;rotation=-90;" vertex="1" parent="1">
          <mxGeometry x="295" y="415" width="280" height="310" as="geometry" />
        </mxCell>
        <mxCell id="srteDfpbYkzMwz0qbXHS-15" value="顾虑（问题、想法）→情绪→态度→行为" style="rounded=1;whiteSpace=wrap;html=1;" vertex="1" parent="1">
          <mxGeometry x="300" y="480" width="270" height="30" as="geometry" />
        </mxCell>
        <mxCell id="srteDfpbYkzMwz0qbXHS-16" value="性格、底线、听谁话、能否当家" style="rounded=1;whiteSpace=wrap;html=1;" vertex="1" parent="1">
          <mxGeometry x="325" y="520" width="220" height="30" as="geometry" />
        </mxCell>
        <mxCell id="srteDfpbYkzMwz0qbXHS-17" value="用最小的代价，把儿媳娶到屋，并让其适应男方家的生活模式乃至认可喜欢男方家的生活模式" style="shape=callout;whiteSpace=wrap;html=1;perimeter=calloutPerimeter;position2=0;align=left;" vertex="1" parent="1">
          <mxGeometry x="460" y="202.5" width="170" height="80" as="geometry" />
        </mxCell>
      </root>
    </mxGraphModel>
  </diagram>
</mxfile>
